PathFileType	4	(X/Y/Z)	OpenSim_Sub06_EMGStiffKnee_Gyro.trc
DataRate	CameraRate	NumFrames	NumMarkers	Units	OrigDataRate	OrigDataStartFrame	OrigNumFrames
100	100	27	8	m	100	2038	5432
Frame#	Time	torso_imu_offset_imu	pelvis_imu_offset_imu	tibia_r_imu_offset_imu	femur_r_imu_offset_imu	tibia_l_imu_offset_imu	femur_l_imu_offset_imu	toes_r_imu_offset_imu	toes_l_imu_offset_imu
				X1	Y1	Z1	X2	Y2	Z2	X3	Y3	Z3	X4	Y4	Z4	X5	Y5	Z5	X6	Y6	Z6	X7	Y7	Z7	X8		Y8	Z8	

2038	20.37000000	0.15211500	0.08565000	0.02253500	-0.18301900	-0.06300200	0.11074400	0.07962500	0.25552800	-0.93872000	0.29732500	-0.01032600	-0.71834600	0.60856900	-0.52607100	-1.16038400	0.30686200	-0.72878200	-0.24490000	0.10073000	-0.57632100	-0.32275000	0.61055900	0.88388500	-0.04704700
2039	20.38000000	0.09496600	0.09596500	0.04052200	-0.14427600	-0.06421700	0.11382200	0.03488800	0.27641900	-0.98568800	0.10023300	-0.00503200	-0.64479400	0.38222400	-0.51755200	-0.72529500	0.30703100	-0.68147200	-0.25081900	0.11217200	-0.63615500	-0.33835400	1.02070000	0.61107400	-0.04577400
2040	20.39000000	0.04360800	0.10156400	0.06507500	-0.13860000	-0.07482200	0.09734600	-0.03767000	0.29699700	-1.03996900	-0.05859400	0.01236900	-0.55372500	0.35064500	-0.56408400	-0.22037500	0.31949400	-0.55079400	-0.26146900	0.11331000	-0.66611700	-0.36323000	1.54660700	0.25349300	-0.05656500
2041	20.40000000	-0.00158400	0.13117200	0.09390400	-0.16038200	-0.10696300	0.10430800	-0.09019200	0.31896100	-1.11436900	-0.15002400	0.05462600	-0.46780700	0.54338300	-0.56578800	0.24973800	0.35945600	-0.41694500	-0.28646900	0.09947300	-0.72295500	-0.38405600	1.29853900	-0.16630900	0.03724100
2042	20.41000000	-0.07432400	0.18299000	0.11070100	-0.16507900	-0.15062800	0.11241400	-0.15230900	0.33710000	-1.20499400	-0.18148000	0.10883200	-0.40593200	0.65325800	-0.45551300	0.63265400	0.40082800	-0.38477000	-0.35014000	0.11177100	-0.76388100	-0.41066100	0.88964700	-0.67336900	0.15881700
2043	20.42000000	-0.15013500	0.23485300	0.11687500	-0.23658000	-0.20754900	0.11007600	-0.22768100	0.34132300	-1.29352200	-0.18925000	0.15542200	-0.34633400	0.56729100	-0.32933700	0.93243100	0.39835600	-0.40687400	-0.44698000	0.13264600	-0.80680600	-0.45718800	0.89495100	-1.10345800	0.36540000
2044	20.43000000	-0.23451100	0.26451600	0.10143400	-0.33918600	-0.29284000	0.12091400	-0.28283200	0.34091000	-1.38517700	-0.15433400	0.17484900	-0.29965000	0.40448100	-0.23530000	1.18027400	0.38590600	-0.42569800	-0.52211900	0.15904300	-0.84279900	-0.51154900	-1.22589500	-2.85748200	0.61736800
2045	20.44000000	-0.32010400	0.30751900	0.09773700	-0.46304300	-0.37916600	0.10370200	-0.34437500	0.33526900	-1.48001700	-0.10873900	0.17858600	-0.24931900	0.36326500	-0.25212700	1.48714100	0.48786200	-0.46495300	-0.50454300	0.16463700	-0.87993200	-0.55547000	-3.51346700	-3.74674400	0.16627100
2046	20.45000000	-0.41726800	0.37341000	0.09501100	-0.61418000	-0.46429800	0.05856600	-0.39204900	0.30829300	-1.59899900	-0.05794000	0.17730200	-0.17866400	0.24995000	-0.27658400	1.83661800	0.64529700	-0.57151700	-0.38471800	0.19384600	-0.94526000	-0.59927100	0.28989000	-3.18110700	-0.02905000
2047	20.46000000	-0.45463200	0.39277900	0.06731200	-0.77932300	-0.55009800	-0.04695500	-0.43962500	0.31133400	-1.73263000	-0.04850600	0.18826300	-0.09331600	-0.07364300	-0.08436200	1.91014900	0.73815900	-0.88482600	-0.11980100	0.24205300	-1.01689000	-0.64623400	-1.11184400	-1.84800500	0.78757900
2048	20.47000000	-0.45495100	0.35196500	-0.01661700	-0.83402300	-0.65252700	-0.28208200	-0.33104300	0.37131100	-1.87591300	-0.04720700	0.20770600	0.06006100	-0.07951700	0.07040100	1.77550200	0.63178700	-1.30574300	0.29660900	0.24731900	-1.26279400	-0.71573100	-2.31350300	4.31869200	-1.03040300
2049	20.48000000	-0.52071900	0.33411300	0.00581400	-0.64956800	-0.75406800	-0.66038100	-0.10906400	0.38748700	-2.02301800	0.03376200	0.22807400	0.30523000	-1.18914200	0.48706200	1.64386800	0.28525500	-1.39378100	0.69461300	0.35039800	-1.53880700	-0.89109600	5.70898500	-1.35625700	-0.17470600
2050	20.49000000	-0.52514500	0.44206500	0.15276300	-0.37403100	-0.76820600	-0.96915900	0.11122400	0.31180100	-2.12139500	0.14890100	0.28110900	0.52992500	-2.14472300	0.50196100	1.58025200	-0.58754500	-0.74087400	0.83803900	0.33079800	-1.84623600	-1.07803100	-2.33595000	0.20167700	0.24333800
2051	20.50000000	-0.39342400	0.33723300	0.18198200	-0.19317600	-0.63760500	-1.09322100	0.38618000	0.22512500	-2.14426000	0.25854300	0.33831100	0.75200100	-2.03189900	0.14573100	1.68563400	-1.29315400	-0.01859000	0.36405000	0.40775700	-2.18977900	-1.27742900	-2.12311900	-0.38188200	-0.00110500
2052	20.51000000	-0.33733500	0.24684700	0.09968100	0.20643500	-0.36690100	-0.64794800	0.68464700	0.07636600	-2.17263500	0.28522900	0.32473200	1.02025600	-2.32386800	-0.04959400	1.70540300	-1.08833300	0.01530000	-0.42057100	0.49806000	-2.56265300	-1.55847200	1.66491200	-0.08795600	-0.09251300
2053	20.52000000	-0.31090500	0.21478000	0.01727900	0.61042100	-0.19136600	-0.16025400	0.83793700	-0.22054900	-2.25892200	0.29948800	0.28408400	1.32103700	-2.51566000	-0.53627700	1.54602800	-0.65443500	-0.23821100	-0.80436400	0.67382900	-2.97591100	-1.85240800	-0.49655500	-0.21028900	-0.01495400
2054	20.53000000	-0.34614800	0.12683100	-0.06923700	0.62113900	-0.15015800	0.12086600	0.81294400	-0.34211000	-2.32015500	0.36788800	0.33945600	1.61905600	-1.92878200	-0.71800800	1.30631800	-0.54791000	-0.32443400	-0.61913800	0.61833500	-3.44126000	-2.05143900	0.06153100	-0.10742700	0.00497300
2055	20.54000000	-0.34557100	0.00124100	-0.19574900	0.35794100	-0.14281900	0.26586100	0.69582300	-0.34492000	-2.30899100	0.39192900	0.57136100	1.81767700	-1.42261200	-0.51695200	0.99963600	-0.64980500	-0.30552900	-0.15092400	0.61958200	-3.97706100	-2.22014500	-0.05821200	-0.23075400	0.16303400
2056	20.55000000	-0.43258900	-0.02997000	-0.28126200	0.10812100	-0.15327000	0.31992400	0.29026300	-0.39082300	-2.33852200	0.37803700	0.95453000	1.90989000	-1.13809300	-0.32547300	0.61313900	-0.69537000	-0.33960600	0.41400000	0.29584000	-4.45470400	-2.34155000	-0.18595000	-0.15486400	0.24415600
2057	20.56000000	-0.63635700	-0.04189300	-0.24116300	-0.09154100	-0.16795000	0.33096300	-0.24919200	-0.37180200	-2.42967500	0.36758900	1.24497200	1.90429200	-0.52656200	-0.19070200	0.37678000	-0.41621200	-0.52452300	0.85075600	0.27664000	-4.64895600	-2.45069900	-0.27207600	-0.08763800	0.32258100
2058	20.57000000	-0.74347900	-0.03941900	-0.15862000	-0.30520900	-0.12515700	0.29280200	-0.76583800	-0.25246000	-2.51221200	0.22402500	1.32936500	1.85285900	0.15258800	-0.05718800	0.43359200	0.08628100	-0.75895200	1.20883600	0.29734800	-4.65219800	-2.61721000	-0.22636100	-0.01540600	0.32680700
2059	20.58000000	-0.83546700	0.01684500	-0.06785500	-0.52860700	-0.04337200	0.23860100	-1.06381900	-0.25588400	-2.53780400	0.04770900	1.31061500	1.79513400	0.60246000	-0.03549900	0.61121800	0.51688600	-0.79274800	1.31981900	0.39446400	-4.70160800	-2.84428800	-0.19326800	-0.03437000	0.30203900
2060	20.59000000	-0.79072800	0.06974000	-0.00810700	-0.64894600	0.02271200	0.18731500	-1.11497300	-0.38840600	-2.41744800	-0.01291700	1.23778100	1.72399700	0.67125300	-0.08993300	0.74546900	0.78450000	-0.59225700	1.29077600	0.82553300	-4.46404700	-3.16548900	-0.11589600	-0.05615100	0.26870400
2061	20.60000000	-0.69042800	0.11002300	0.00841900	-0.64020500	0.06673000	0.12584900	-1.05526100	-0.45839900	-2.14367200	-0.00419000	1.10460400	1.66348400	0.50621800	-0.10968800	0.75422000	0.96918000	-0.35675800	1.25372100	1.39195500	-4.37040000	-3.41705100	-0.06766900	-0.06485000	0.22462700
2062	20.61000000	-0.58465500	0.12531800	0.01547400	-0.57555700	0.04527300	0.08845400	-0.94190500	-0.41493300	-1.80534000	-0.06548300	0.90990700	1.64159600	0.17614500	-0.13891400	0.63592600	1.08663100	-0.16236000	1.12998200	1.75816500	-4.45780400	-3.52745600	-0.04816000	-0.10647400	0.18001500
2063	20.62000000	-0.51147500	0.09113100	0.04654300	-0.47843700	-0.01513800	0.08397900	-0.93396400	-0.36004400	-1.42644300	-0.15683400	0.71046500	1.60461200	-0.25168200	-0.18228500	0.50550900	0.99930400	-0.03737600	0.93261700	1.81101600	-4.51082000	-3.39082300	0.03229800	-0.09982300	0.12330900
2064	20.63000000	-0.43082900	0.10704800	0.04635000	-0.37553200	-0.05110100	0.11300000	-1.15129000	-0.35484000	-1.06765200	-0.21884300	0.56126700	1.52473600	-0.63616800	-0.23301500	0.42908400	0.64008600	0.00610300	0.80382800	1.32860800	-4.09166800	-3.01145800	0.04755600	-0.14354800	0.08579500
